#!OML:ASF I:\Actors\actors\Patient Classification 2\Patient 1\Session 1\actor1.ASF
:FULLY-SPECIFIED
:DEGREES

335
root -0.542426 18.0783 5.88647 3.637 -32.3961 -1.7125
lowerback 2.93818 -7.51498 -3.04475
upperback -2.90114 -10.1162 2.55802
thorax -3.65072 -4.92993 4.8524
lowerneck -9.60011 4.50727 13.6785
upperneck 30.5392 1.61381 3.71376
head 11.8984 2.51149 -0.761784
rclavicle 6.08281e-014 6.16232e-015
rhumerus 37.4146 43.6795 1.77786
rradius 139.439
rwrist -90.2604
rhand -0.83243 -57.2038
rfingers 7.12502
rthumb 24.7928 -85.6167
lclavicle 6.08281e-014 6.16232e-015
lhumerus 23.7438 29.2036 87.4786
lradius 64.839
lwrist 80.935
lhand -39.413 -1.15674
lfingers 7.12502
lthumb -12.4019 28.4554
rfemur 7.81641 17.441 13.0845
rtibia -19.7363
rfoot 4.0755 -6.24468
rtoes -0.219678
lfemur 13.7655 20.0116 -13.48
ltibia 3.65764e-014
lfoot -18.3395 14.4656
ltoes 4.22556
336
root -0.540008 18.0787 5.89045 3.64399 -32.3178 -1.71398
lowerback 2.92846 -7.53554 -2.98671
upperback -2.91178 -10.1407 2.55593
thorax -3.66412 -4.9432 4.82
lowerneck -9.54428 4.51918 13.6374
upperneck 30.4665 1.65114 3.73777
head 11.858 2.52282 -0.742983
rclavicle 2.76559e-014 4.57205e-015
rhumerus 37.3027 43.7484 1.65259
rradius 139.47
rwrist -90.2694
rhand -0.907829 -57.2052
rfingers 7.12502
rthumb 24.7206 -85.628
lclavicle 2.76559e-014 4.57205e-015
lhumerus 23.6773 29.1399 87.4409
lradius 64.8653
lwrist 81.0275
lhand -39.4702 -1.07423
lfingers 7.12502
lthumb -12.4571 28.5345
rfemur 7.83394 17.3599 13.0877
rtibia -19.7323
rfoot 4.11048 -6.20159
rtoes -0.814659
lfemur 13.7554 19.9506 -13.4907
ltibia 4.77083e-015
lfoot -18.3309 14.4543
ltoes 4.30589
337
root -0.537875 18.0792 5.89476 3.65183 -32.2586 -1.73106
lowerback 2.92417 -7.54785 -2.96411
upperback -2.93392 -10.1555 2.5839
thorax -3.68217 -4.95014 4.83843
lowerneck -9.44585 4.5413 13.5909
upperneck 30.4033 1.70814 3.76884
head 11.8137 2.54307 -0.71875
rclavicle 1.90212e-014 -3.18055e-015
rhumerus 37.25 43.8115 1.6005
rradius 139.487
rwrist -90.2462
rhand -1.00973 -57.1754
rfingers 7.12502
rthumb 24.6229 -85.6116
lclavicle 1.90212e-014 -3.18055e-015
lhumerus 23.6175 29.1302 87.5086
lradius 64.9005
lwrist 81.0514
lhand -39.5322 -0.963907
lfingers 7.12502
lthumb -12.5168 28.6412
rfemur 7.86727 17.3068 13.1027
rtibia -19.732
rfoot 4.10506 -6.20678
rtoes -1.09948
lfemur 13.759 19.9077 -13.4816
ltibia 2.22639e-014
lfoot -18.3624 14.4245
ltoes 4.55726
338
root -0.534826 18.079 5.89956 3.65682 -32.2024 -1.74504
lowerback 2.9693 -7.62347 -3.04217
upperback -3.01227 -10.2592 2.7116
thorax -3.74263 -4.9959 5.02662
lowerneck -9.24994 4.61147 13.4851
upperneck 30.4043 1.89611 3.67658
head 11.7783 2.60282 -0.715122
rclavicle 4.2043e-014 -1.86858e-014
rhumerus 37.5964 43.8732 1.87124
rradius 139.495
rwrist -90.2528
rhand -1.05338 -57.1546
rfingers 7.12502
rthumb 24.581 -85.5964
lclavicle 4.2043e-014 -1.86858e-014
lhumerus 23.4659 29.4139 87.6232
lradius 64.9647
lwrist 81.0341
lhand -39.4801 -0.881886
lfingers 7.12502
lthumb -12.4666 28.7263
rfemur 7.89763 17.2886 13.1047
rtibia -19.7307
rfoot 4.04166 -6.27242
rtoes -0.802433
lfemur 13.7585 19.8698 -13.4851
ltibia -2.38542e-014
lfoot -18.3867 14.3917
ltoes 4.58391
339
root -0.531148 18.0788 5.90411 3.65119 -32.1256 -1.75041
lowerback 3.0936 -7.82022 -3.23354
upperback -3.19533 -10.5296 3.00454
thorax -3.88828 -5.11602 5.47021
lowerneck -8.79585 4.74824 13.0538
upperneck 30.4088 2.29204 3.58492
head 11.6877 2.71679 -0.637296
rclavicle 1.04896e-013 -9.93923e-015
rhumerus 38.585 43.9659 2.67689
rradius 139.502
rwrist -90.3148
rhand -1.06274 -57.1331
rfingers 7.12502
rthumb 24.5721 -85.5762
lclavicle 1.04896e-013 -9.93923e-015
lhumerus 23.0935 30.1311 87.6755
lradius 65.072
lwrist 81.0031
lhand -39.3479 -0.87356
lfingers 7.12502
lthumb -12.3391 28.7423
rfemur 7.92503 17.2171 13.105
rtibia -19.7175
rfoot 4.0291 -6.29208
rtoes -0.626963
lfemur 13.7578 19.8113 -13.4969
ltibia 4.77083e-014
lfoot -18.3804 14.375
ltoes 4.45395
340
root -0.529288 18.0793 5.9082 3.65214 -32.0672 -1.7771
lowerback 2.97726 -7.70967 -3.01707
upperback -3.0566 -10.3715 2.79596
thorax -3.77084 -5.05068 5.10776
lowerneck -9.12153 4.68348 13.4245
upperneck 30.3749 2.06009 3.61067
head 11.7455 2.65995 -0.71109
rclavicle 8.78007e-014 -7.95139e-016
rhumerus 37.8525 43.8467 2.05072
rradius 139.459
rwrist -90.257
rhand -1.05138 -57.1856
rfingers 7.12502
rthumb 24.583 -85.6272
lclavicle 8.78007e-014 -7.95139e-016
lhumerus 23.4052 29.576 87.6672
lradius 64.9852
lwrist 81.035
lhand -39.3036 -0.952105
lfingers 7.12502
lthumb -12.2964 28.6664
rfemur 7.95244 17.1843 13.1345
rtibia -19.7022
rfoot 3.99824 -6.32025
rtoes -0.539464
lfemur 13.7684 19.7682 -13.4754
ltibia -1.74931e-014
lfoot -18.3623 14.381
ltoes 4.36689
341
root -0.528613 18.0789 5.91265 3.63296 -32.0442 -1.80081
lowerback 3.04983 -7.78137 -3.13769
upperback -3.15362 -10.4729 2.93334
thorax -3.85615 -5.09266 5.33475
lowerneck -8.84921 4.72292 13.2395
upperneck 30.3503 2.2146 3.57962
head 11.6796 2.70062 -0.678732
rclavicle 9.11676e-014 2.46493e-014
rhumerus 38.25 43.9273 2.39789
rradius 139.497
rwrist -90.2845
rhand -1.01683 -57.1224
rfingers 7.12502
rthumb 24.6161 -85.5595
lclavicle 9.11676e-014 2.46493e-014
lhumerus 23.1515 29.8359 87.6204
lradius 65.0627
lwrist 81.0799
lhand -39.3344 -0.945428
lfingers 7.12502
lthumb -12.3261 28.6712
rfemur 8.00239 17.2249 13.1632
rtibia -19.6957
rfoot 3.92345 -6.37304
rtoes -0.433774
lfemur 13.8106 19.7568 -13.4454
ltibia 3.18055e-014
lfoot -18.3691 14.3875
ltoes 4.2953
342
root -0.527333 18.0773 5.91751 3.57723 -32.0273 -1.7857
lowerback 2.94402 -7.6564 -2.95843
upperback -2.9807 -10.2979 2.71035
thorax -3.70611 -5.0192 4.97523
lowerneck -9.27164 4.64484 13.6229
upperneck 30.3755 1.95752 3.54249
head 11.7791 2.63046 -0.778949
rclavicle 1.68321e-013 -1.19271e-015
rhumerus 37.4835 43.7856 1.77664
rradius 139.513
rwrist -90.1775
rhand -0.968726 -56.815
rfingers 7.12502
rthumb 24.6622 -85.2458
lclavicle 1.68321e-013 -1.19271e-015
lhumerus 23.4785 29.3196 87.6572
lradius 64.9614
lwrist 81.0404
lhand -39.2443 -0.892867
lfingers 7.12502
lthumb -12.2392 28.729
rfemur 8.0781 17.237 13.1592
rtibia -19.6966
rfoot 3.90361 -6.38845
rtoes -0.4834
lfemur 13.8712 19.7487 -13.4481
ltibia 2.8625e-014
lfoot -18.383 14.385
ltoes 4.23149
343
root -0.526034 18.0756 5.92178 3.52823 -32.0172 -1.76733
lowerback 2.93606 -7.61149 -2.93176
upperback -2.93573 -10.237 2.66223
thorax -3.67404 -4.99141 4.90503
lowerneck -9.36762 4.60173 13.7081
upperneck 30.3595 1.87855 3.49263
head 11.791 2.59961 -0.820203
rclavicle -4.18193e-014 -5.56597e-015
rhumerus 37.2317 43.7146 1.60912
rradius 139.556
rwrist -90.1039
rhand -1.00343 -56.655
rfingers 7.12502
rthumb 24.6289 -85.0904
lclavicle -4.18193e-014 -5.56597e-015
lhumerus 23.5462 29.1572 87.6973
lradius 64.9146
lwrist 80.9767
lhand -39.1245 -1.05958
lfingers 7.12502
lthumb -12.1237 28.5692
rfemur 8.15021 17.2355 13.1528
rtibia -19.7121
rfoot 3.89851 -6.40889
rtoes -0.496681
lfemur 13.9246 19.7474 -13.4538
ltibia -2.8625e-014
lfoot -18.3977 14.3573
ltoes 4.24693
344
root -0.52549 18.0749 5.9257 3.50631 -32.0252 -1.78627
lowerback 2.97392 -7.60691 -2.94797
upperback -2.95389 -10.2321 2.68595
thorax -3.70764 -4.98695 4.94523
lowerneck -9.30746 4.59292 13.661
upperneck 30.3557 1.87496 3.52969
head 11.7753 2.59591 -0.800496
rclavicle -1.9543e-014 1.27222e-014
rhumerus 37.2399 43.7051 1.59849
rradius 139.554
rwrist -90.0937
rhand -0.968605 -56.7395
rfingers 7.12502
rthumb 24.6623 -85.1703
lclavicle -1.9543e-014 1.27222e-014
lhumerus 23.4501 29.1284 87.6364
lradius 64.9264
lwrist 80.9988
lhand -39.1698 -1.26233
lfingers 7.12502
lthumb -12.1674 28.3638
rfemur 8.21212 17.2489 13.1769
rtibia -19.7424
rfoot 3.87775 -6.42702
rtoes -0.408039
lfemur 13.98 19.7656 -13.4251
ltibia 2.54444e-014
lfoot -18.4168 14.3273
ltoes 4.23601
345
root -0.525555 18.0738 5.93045 3.48285 -32.0406 -1.78821
lowerback 2.97331 -7.60174 -2.96981
upperback -2.96217 -10.2263 2.68791
thorax -3.71245 -4.98319 4.95927
lowerneck -9.28133 4.58585 13.6362
upperneck 30.3865 1.85227 3.5876
head 11.7808 2.59029 -0.777989
rclavicle 1.12438e-013 -2.38542e-015
rhumerus 37.2286 43.745 1.58184
rradius 139.541
rwrist -90.1086
rhand -0.936488 -56.8729
rfingers 7.12502
rthumb 24.6931 -85.2994
lclavicle 1.12438e-013 -2.38542e-015
lhumerus 23.3576 29.1125 87.5516
lradius 64.9426
lwrist 81.0339
lhand -39.2837 -1.30942
lfingers 7.12502
lthumb -12.2772 28.3102
rfemur 8.26001 17.2257 13.1817
rtibia -19.7682
rfoot 3.89143 -6.39434
rtoes -0.285067
lfemur 14.0343 19.7912 -13.4147
ltibia 2.8625e-014
lfoot -18.4367 14.3083
ltoes 4.26093
346
root -0.52565 18.0723 5.93539 3.45365 -32.0401 -1.7471
lowerback 2.93302 -7.60517 -3.01102
upperback -2.96061 -10.2323 2.6791
thorax -3.68223 -4.98623 4.96564
lowerneck -9.2564 4.58072 13.6579
upperneck 30.388 1.85833 3.54242
head 11.7771 2.58987 -0.798138
rclavicle -1.022e-013 -5.96354e-015
rhumerus 37.2149 43.8006 1.60706
rradius 139.544
rwrist -90.0799
rhand -0.992735 -56.8771
rfingers 7.12502
rthumb 24.6392 -85.311
lclavicle -1.022e-013 -5.96354e-015
lhumerus 23.336 29.1532 87.5165
lradius 64.9303
lwrist 80.9512
lhand -39.2947 -1.2478
lfingers 7.12502
lthumb -12.2878 28.3712
rfemur 8.28674 17.163 13.1438
rtibia -19.7686
rfoot 3.89308 -6.33752
rtoes -0.207943
lfemur 14.064 19.8022 -13.452
ltibia -1.90833e-014
lfoot -18.4508 14.2994
ltoes 4.34876
347
root -0.525586 18.0713 5.93979 3.46322 -32.0214 -1.76079
lowerback 2.89686 -7.61249 -2.99402
upperback -2.96005 -10.2404 2.6809
thorax -3.66314 -4.99144 4.953
lowerneck -9.24317 4.58772 13.6705
upperneck 30.3867 1.88189 3.50025
head 11.7752 2.59692 -0.813114
rclavicle 6.95746e-016 2.8625e-014
rhumerus 37.3594 43.8198 1.62899
rradius 139.517
rwrist -90.0778
rhand -1.01782 -56.897
rfingers 7.12502
rthumb 24.6151 -85.3342
lclavicle 6.95746e-016 2.8625e-014
lhumerus 23.3344 29.1635 87.4943
lradius 64.9317
lwrist 80.756
lhand -39.3039 -1.1299
lfingers 7.12502
lthumb -12.2967 28.4885
rfemur 8.3032 17.1235 13.1587
rtibia -19.7544
rfoot 3.85891 -6.33142
rtoes -0.163635
lfemur 14.0717 19.7979 -13.4416
ltibia 3.18055e-015
lfoot -18.4575 14.296
ltoes 4.46607
